<mxfile host="www.draw.io" modified="2019-11-05T03:21:23.042Z" agent="Mozilla/5.0 (Windows NT 10.0; WOW64) AppleWebKit/537.36 (KHTML, like Gecko) Chrome/72.0.3626.121 Safari/537.36" etag="2_CcSw3xhzDPMSvP-hFf" version="12.2.0" type="github" pages="1">
  <diagram id="c54ahLHcIgC-Hy-V76fX" name="Page-1">
    <mxGraphModel dx="1221" dy="1059" grid="1" gridSize="10" guides="1" tooltips="1" connect="1" arrows="1" fold="1" page="1" pageScale="1" pageWidth="827" pageHeight="1169" math="0" shadow="0">
      <root>
        <mxCell id="0"/>
        <mxCell id="1" parent="0"/>
        <mxCell id="EYv-WufFpoWmrTShHV3W-1" value="实际用户数据部分&lt;br&gt;malloc_usable_size()返回该部分大小" style="rounded=0;whiteSpace=wrap;html=1;fontStyle=1;fillColor=#d5e8d4;strokeColor=#82b366;" vertex="1" parent="1">
          <mxGeometry x="1080" y="310" width="310" height="120" as="geometry"/>
        </mxCell>
        <mxCell id="EYv-WufFpoWmrTShHV3W-2" value="当前chunk的size，包含头部开销" style="rounded=0;whiteSpace=wrap;html=1;fontStyle=1;fillColor=#dae8fc;strokeColor=#6c8ebf;" vertex="1" parent="1">
          <mxGeometry x="1080" y="270" width="220" height="40" as="geometry"/>
        </mxCell>
        <mxCell id="EYv-WufFpoWmrTShHV3W-3" value="前一个chunk的size(如果其空闲)" style="rounded=0;whiteSpace=wrap;html=1;fontStyle=1;fillColor=#dae8fc;strokeColor=#6c8ebf;" vertex="1" parent="1">
          <mxGeometry x="1080" y="230" width="310" height="40" as="geometry"/>
        </mxCell>
        <mxCell id="EYv-WufFpoWmrTShHV3W-4" value="M" style="rounded=0;whiteSpace=wrap;html=1;fillColor=#ffe6cc;strokeColor=#d79b00;" vertex="1" parent="1">
          <mxGeometry x="1330" y="270" width="30" height="40" as="geometry"/>
        </mxCell>
        <mxCell id="EYv-WufFpoWmrTShHV3W-5" value="P" style="rounded=0;whiteSpace=wrap;html=1;fillColor=#ffe6cc;strokeColor=#d79b00;" vertex="1" parent="1">
          <mxGeometry x="1360" y="270" width="30" height="40" as="geometry"/>
        </mxCell>
        <mxCell id="EYv-WufFpoWmrTShHV3W-6" value="A" style="rounded=0;whiteSpace=wrap;html=1;fillColor=#ffe6cc;strokeColor=#d79b00;" vertex="1" parent="1">
          <mxGeometry x="1300" y="270" width="30" height="40" as="geometry"/>
        </mxCell>
      </root>
    </mxGraphModel>
  </diagram>
</mxfile>
